<svg width="390" height="146" viewBox="0 0 390 146" fill="none" xmlns="http://www.w3.org/2000/svg">
<rect width="390" height="146" fill="black"/>
<path fill-rule="evenodd" clip-rule="evenodd" d="M121.305 40.8622H132.736V42.6837C132.404 42.5722 132.057 42.5147 131.707 42.5135H125.135V51.025H131.527C131.987 51.025 132.395 50.9746 132.736 50.8887V52.7022C132.446 52.6343 132.047 52.5999 131.553 52.5999H125.135V61.4009H131.51C131.86 61.4009 132.277 61.35 132.736 61.2392V63.1969H121.322C121.413 62.8526 121.459 62.4979 121.458 62.1417V41.9429C121.458 41.5007 121.407 41.1348 121.305 40.8622ZM118.659 46.6587L115.356 46.6337C115.194 44.7778 114.13 42.9812 111.79 42.6503C106.776 42.199 105.363 47.7054 105.491 51.7318C105.619 55.6129 106.239 61.5796 111.415 61.5796C113.586 61.5796 115.671 59.3493 115.603 57.4684L118.659 57.4434C118.437 61.3245 113.986 63.5713 111.866 63.6482C104.623 63.8953 101.592 59.0687 101.439 52.1821C101.304 45.9443 103.857 40.4025 111.015 40.4025C117.143 40.4878 118.327 44.1139 118.659 46.6587ZM67.1458 60.6601L69.3337 58.8301C70.4738 60.7115 71.4103 61.5706 73.6746 61.5706C75.9723 61.5706 77.9051 60.1749 77.9051 57.707C77.9051 56.4895 77.4109 55.4936 76.4325 54.7449C75.9892 54.3954 74.8661 53.7914 73.0955 52.9488C70.4484 51.6809 67.8696 50.0291 67.8696 46.7101C67.8696 42.522 71.4273 40.675 75.1806 40.5382C77.4024 40.4534 80.1604 41.6799 81.275 43.0581L79.0537 44.7688C78.6575 44.0294 78.0685 43.4112 77.3492 42.9796C76.6299 42.5481 75.8072 42.3194 74.9684 42.3178C72.1336 42.3178 69.8868 45.6034 72.2359 47.8677C72.8314 48.4462 74.0494 49.161 75.9049 50.0121C78.8665 51.3999 81.3943 53.0591 81.3943 56.7281C81.3943 57.996 81.0624 59.1791 80.407 60.2603C79.0881 62.4392 76.8833 63.5289 73.8023 63.5289C70.2612 63.5289 69.5638 62.7202 67.1458 60.6601ZM35.9766 40.8622H47.3983V42.6837C47.0665 42.5723 46.719 42.5148 46.369 42.5135H39.7983V51.025H46.1903C46.65 51.025 47.0589 50.9746 47.3988 50.8887V52.7022C47.1093 52.6343 46.7094 52.5999 46.2247 52.5999H39.7983V61.4009H46.1733C46.5223 61.4009 46.9396 61.35 47.3988 61.2392V63.1969H35.9941C36.0775 62.8513 36.1202 62.4972 36.1214 62.1417V41.9429C36.1214 41.5007 36.07 41.1348 35.9766 40.8622ZM16 40.8622H20.1537V41.0669C20.1537 41.2541 20.2131 41.5007 20.3154 41.8156L26.1708 59.4431L32.1804 41.7388C32.2737 41.4413 32.3251 41.1517 32.3251 40.8622H34.3423C34.1381 41.2196 33.9849 41.5351 33.891 41.8156L27.0303 62.2864C26.9625 62.4821 26.9031 62.7886 26.8521 63.1974H23.4472C23.3958 62.888 23.319 62.5833 23.2176 62.2864L16.4937 41.9774C16.3384 41.6028 16.1764 41.231 16.008 40.8622H16ZM60.1154 52.5065C62.8389 51.9699 64.9245 49.8849 64.9245 46.9058C64.9245 42.9982 61.6558 40.8617 57.9959 40.8617H51.3059C51.3992 41.2026 51.4506 41.5601 51.4506 41.9344V62.1237C51.4506 62.558 51.3992 62.9239 51.3059 63.1964H55.2893C55.1919 62.8472 55.1432 62.4862 55.1446 62.1237V52.847L56.421 52.9833L63.0945 63.1964H67.1034L60.1154 52.5065ZM59.426 50.8043C58.7027 51.3145 57.8341 51.5696 56.8383 51.5696H55.1361V42.489H56.6596C57.9624 42.489 58.9748 42.812 59.6986 43.4584C60.6859 44.353 61.1881 45.5615 61.1881 47.0765C61.1881 48.7108 60.6006 49.9537 59.426 50.8048M100.775 62.2695L93.3367 41.603C93.254 41.364 93.2053 41.1147 93.1919 40.8622H89.9737C89.9737 41.1263 89.9313 41.4068 89.829 41.6878L82.6203 62.2695C82.526 62.5665 82.3732 62.8735 82.1691 63.1969H84.2457C84.2377 62.8565 84.2801 62.5415 84.3739 62.2695L86.5094 56.2H94.7234L96.8344 62.27C96.9452 62.6009 96.9962 62.9074 96.9962 63.1969H101.304C101.056 62.848 100.878 62.533 100.775 62.2695ZM87.0715 54.5572L90.5443 44.4713L94.1109 54.5572H87.0715Z" fill="white"/>
<g clip-path="url(#clip0_232_39)">
<path d="M227.272 64.852L217.819 39.0227L217.812 39.0056H217.626L215.679 44.3134L212.135 53.9765L212.126 53.9688C210.898 52.8932 209.165 52.2209 206.983 51.9705L206.317 51.9023L206.977 51.8183C210.576 51.1765 212.996 48.9207 212.996 46.203C212.996 42.4762 209.464 39.8749 204.404 39.8749H193.876V40.0636H196.935V59.3207L189.506 39.0226L189.499 39.0056H189.313L187.366 44.3134L179.857 64.7855L179.811 64.7908C179.683 64.8065 179.556 64.819 179.43 64.8284C179.241 64.8431 179.054 64.8519 178.865 64.8519H171.278L185.7 40.0635L185.807 39.8772H168.169V47.5454H168.356C168.389 43.8103 170.581 40.0635 175.424 40.0635H181.267L166.736 65.0376H186.312V57.691H186.125C186.099 60.9464 184.24 64.0385 180.196 64.7367L180.067 64.7585L183.147 56.358H191.774L194.883 64.852H191.816V65.0377H203.853V64.852H200.773V52.0393H204.327C207.943 52.0393 210.017 53.6426 210.017 56.4367V58.7094C210.017 58.9599 210.034 59.326 210.053 59.6322V59.6434L208.143 64.8508H205.648V65.0365H210.813V64.8508H208.345L210.084 60.1089C210.088 60.1547 210.09 60.1824 210.09 60.1824L210.138 60.6096L210.184 60.8923C210.474 62.6409 211.148 63.9262 212.186 64.7126L212.335 64.8202C213.124 65.3644 214.105 65.64 215.251 65.64C216.769 65.64 217.781 65.2645 218.616 64.3806L218.507 64.2783C217.737 64.9835 217.091 65.2692 216.281 65.2692C214.902 65.2692 214.18 63.6088 214.18 61.9714V58.787C214.187 57.9969 214.062 57.211 213.811 56.4614L213.776 56.3626V56.3591H220.087L223.196 64.8531H220.129V65.0388H230.545V64.8531L227.272 64.852ZM183.215 56.1722L187.466 44.585L191.706 56.1722H183.215ZM200.775 51.8529V40.0635H203.488C207.111 40.0635 209.024 42.2011 209.024 46.243C209.024 50.5417 207.926 51.8529 204.327 51.8529H200.775ZM213.703 56.1722L213.685 56.1264C213.404 55.4486 212.996 54.8302 212.482 54.3044L212.304 54.128L212.285 54.1104L215.776 44.585L220.016 56.1722H213.703Z" fill="white"/>
</g>
<g clip-path="url(#clip1_232_39)">
<path d="M363.633 47.6201L363.428 47.6847C362.633 46.0415 361.498 44.7333 360.022 43.7604C358.568 42.7874 356.74 42.3009 354.537 42.3009C353.31 42.3009 352.141 42.5495 351.028 43.0468C349.915 43.5225 348.939 44.2036 348.098 45.0901C347.281 45.9549 346.622 47.0036 346.122 48.236C345.623 49.4685 345.373 50.8306 345.373 52.3225C345.373 53.8144 345.623 55.1765 346.122 56.409C346.622 57.6414 347.281 58.7008 348.098 59.5873C348.939 60.4522 349.915 61.1225 351.028 61.5982C352.141 62.0738 353.31 62.3116 354.537 62.3116C356.717 62.3116 358.489 61.9873 359.851 61.3387C361.237 60.6684 362.406 59.6522 363.36 58.2901L363.565 58.3547L363.497 60.4304C362.974 60.9493 362.372 61.4142 361.691 61.8249C361.01 62.2141 360.272 62.5493 359.477 62.8304C358.705 63.0898 357.898 63.2844 357.058 63.4141C356.218 63.5656 355.377 63.6414 354.537 63.6414C352.788 63.6414 351.119 63.3711 349.529 62.8305C347.94 62.29 346.543 61.5332 345.339 60.5603C344.135 59.5657 343.182 58.3765 342.477 56.9927C341.773 55.5873 341.421 54.0306 341.421 52.3225C341.421 50.6144 341.773 49.0684 342.477 47.6847C343.182 46.2792 344.135 45.0792 345.339 44.0847C346.543 43.0901 347.939 42.3333 349.529 41.8144C351.119 41.2738 352.788 41.0036 354.537 41.0036C355.377 41.0036 356.218 41.0684 357.058 41.1982C357.898 41.3279 358.705 41.5333 359.477 41.8144C360.272 42.0739 361.01 42.409 361.691 42.8198C362.372 43.209 362.974 43.6631 363.497 44.182L363.633 47.6201ZM288.563 53.8147C288.313 53.9227 288.074 54.0633 287.847 54.2365C287.62 54.4093 287.506 54.6472 287.506 54.95V58.9392C286.416 60.4311 285.019 61.5878 283.316 62.4095C281.613 63.2311 279.728 63.6419 277.661 63.6419C275.912 63.6419 274.243 63.3716 272.653 62.8311C271.063 62.2905 269.667 61.5338 268.463 60.5608C267.259 59.5662 266.305 58.3771 265.601 56.9933C264.897 55.5879 264.545 54.0311 264.545 52.323C264.545 50.6149 264.897 49.069 265.601 47.6852C266.305 46.2798 267.259 45.0798 268.463 44.0852C269.667 43.0906 271.063 42.3339 272.653 41.815C274.243 41.2744 275.912 41.0041 277.661 41.0041C278.501 41.0041 279.342 41.069 280.182 41.1987C281.022 41.3284 281.828 41.5338 282.601 41.8149C283.396 42.0744 284.134 42.4095 284.815 42.8204C285.496 43.2095 286.098 43.6636 286.621 44.1825L286.757 47.6203L286.553 47.685C285.758 46.0417 284.622 44.7336 283.146 43.7606C281.692 42.7876 279.864 42.3011 277.661 42.3011C276.435 42.3011 275.265 42.5498 274.152 43.0471C273.039 43.5228 272.063 44.2038 271.223 45.0903C270.405 45.9552 269.746 47.0038 269.247 48.2363C268.747 49.4687 268.497 50.8309 268.497 52.3227C268.497 53.793 268.736 55.1443 269.213 56.3768C269.712 57.6092 270.371 58.6687 271.188 59.5552C272.029 60.42 273.005 61.1011 274.118 61.5984C275.231 62.074 276.412 62.3119 277.661 62.3119C280.023 62.3119 282.044 61.8795 283.725 61.0146V54.9498C283.725 54.6472 283.6 54.4093 283.351 54.2362C283.123 54.0634 282.896 53.9228 282.669 53.8144L282.7 53.6524C282.814 53.6722 283.018 53.6938 283.314 53.7171C283.609 53.7369 283.916 53.7584 284.233 53.7817H287.163C287.436 53.7619 287.697 53.7404 287.947 53.7171C288.197 53.6973 288.389 53.6758 288.526 53.6524L288.563 53.8147ZM313.238 41.685C313.01 41.7929 312.783 41.9335 312.556 42.1068C312.329 42.2796 312.204 42.6039 312.182 43.0797C312.161 43.5986 312.138 44.2581 312.114 45.0581C312.114 45.8365 312.103 46.723 312.083 47.7175C312.083 48.7121 312.072 49.7932 312.052 50.9608V54.5932C312.031 55.9986 311.849 57.1986 311.506 58.1932C311.166 59.1878 310.711 60.0202 310.144 60.6905C309.599 61.3608 308.985 61.8905 308.304 62.2797C307.645 62.6689 306.987 62.9608 306.328 63.1554C305.692 63.3717 305.09 63.5014 304.523 63.5445C303.955 63.6094 303.512 63.6418 303.194 63.6418C301.899 63.6418 300.65 63.4797 299.447 63.1554C298.243 62.8528 297.187 62.3555 296.278 61.6635C295.37 60.9716 294.643 60.0743 294.098 58.9716C293.553 57.8689 293.28 56.5284 293.28 54.95V51.2851V47.9121C293.28 46.8743 293.27 45.9445 293.249 45.123C293.249 44.2797 293.239 43.5986 293.218 43.0797C293.197 42.604 293.073 42.2797 292.844 42.1067C292.616 41.9339 292.389 41.7933 292.162 41.6849L292.193 41.523C292.307 41.5427 292.489 41.5643 292.739 41.5876C293.011 41.6074 293.284 41.6289 293.556 41.6522C293.852 41.6522 294.136 41.6621 294.408 41.6819H295.634C295.907 41.6621 296.191 41.6522 296.486 41.6522C296.781 41.6325 297.054 41.6109 297.304 41.5876C297.576 41.5678 297.769 41.5463 297.883 41.523L297.914 41.6849C297.664 41.7929 297.426 41.9335 297.198 42.1067C296.994 42.2796 296.88 42.6039 296.857 43.0797C296.837 43.5986 296.814 44.2797 296.79 45.123V54.9499C296.79 57.3067 297.369 59.0472 298.527 60.1715C299.685 61.2959 301.4 61.858 303.671 61.858C304.33 61.858 305.079 61.7823 305.92 61.6308C306.76 61.458 307.543 61.112 308.27 60.593C309.02 60.0741 309.644 59.3389 310.144 58.3876C310.666 57.4362 310.927 56.1714 310.927 54.593C310.927 52.8849 310.917 51.4255 310.896 50.2147C310.896 48.9822 310.886 47.9336 310.865 47.0687C310.865 46.1822 310.855 45.4255 310.834 44.7984C310.813 44.1714 310.79 43.5985 310.766 43.0795C310.745 42.6038 310.62 42.2795 310.391 42.1066C310.164 41.9337 309.937 41.7931 309.71 41.6847L309.741 41.5228C309.991 41.5659 310.275 41.6092 310.593 41.6527C310.911 41.6725 311.206 41.6824 311.479 41.6824C311.728 41.6824 312.012 41.6725 312.33 41.6527C312.671 41.6096 312.966 41.5663 313.216 41.5228L313.238 41.685ZM337.958 47.6201L337.753 47.6847C336.958 46.0415 335.823 44.7333 334.347 43.7604C332.893 42.7874 331.065 42.3009 328.862 42.3009C327.635 42.3009 326.466 42.5495 325.353 43.0468C324.24 43.5225 323.263 44.2036 322.423 45.0901C321.606 45.9549 320.947 47.0036 320.447 48.236C319.948 49.4685 319.698 50.8306 319.698 52.3225C319.698 53.8144 319.948 55.1765 320.447 56.409C320.947 57.6414 321.606 58.7008 322.423 59.5873C323.263 60.4522 324.24 61.1225 325.353 61.5982C326.466 62.0738 327.635 62.3116 328.862 62.3116C331.042 62.3116 332.814 61.9873 334.176 61.3387C335.562 60.6684 336.731 59.6522 337.685 58.2901L337.89 58.3547L337.822 60.4304C337.299 60.9493 336.697 61.4141 336.016 61.8249C335.335 62.2141 334.597 62.5492 333.802 62.8303C333.029 63.0898 332.223 63.2844 331.383 63.4141C330.543 63.5656 329.702 63.6413 328.862 63.6413C327.113 63.6413 325.444 63.3711 323.854 62.8305C322.264 62.29 320.868 61.5332 319.664 60.5602C318.46 59.5657 317.506 58.3765 316.802 56.9927C316.098 55.5873 315.746 54.0306 315.746 52.3224C315.746 50.6143 316.098 49.0684 316.802 47.6846C317.506 46.2792 318.46 45.0792 319.664 44.0846C320.868 43.09 322.264 42.3333 323.854 41.8144C325.444 41.2738 327.113 41.0035 328.862 41.0035C329.702 41.0035 330.543 41.0684 331.383 41.1981C332.223 41.3279 333.029 41.5333 333.802 41.8144C334.597 42.0738 335.335 42.409 336.016 42.8198C336.697 43.209 337.299 43.663 337.822 44.1819L337.958 47.6201ZM373.901 63.0903C373.787 63.0705 373.594 63.049 373.322 63.0257C373.072 63.0257 372.799 63.0158 372.504 62.996C372.209 62.996 371.925 62.9861 371.652 62.9663H369.609C369.336 62.9861 369.063 63.0076 368.791 63.031C368.541 63.0507 368.348 63.0723 368.212 63.0956L368.181 62.9656C368.408 62.8577 368.635 62.7171 368.862 62.5438C369.089 62.371 369.214 62.0467 369.237 61.5709C369.257 61.0519 369.268 60.5114 369.268 59.9493C369.289 59.3871 369.299 58.7492 369.299 58.0357V55.6033V52.3276V49.052V46.5871C369.299 45.8736 369.289 45.2466 369.268 44.706C369.268 44.1439 369.257 43.6033 369.237 43.0844C369.216 42.6087 369.091 42.2844 368.862 42.1115C368.635 41.9169 368.408 41.7656 368.181 41.6576L368.212 41.5277C368.348 41.5708 368.541 41.6032 368.791 41.625C369.063 41.625 369.336 41.6349 369.609 41.6546C369.904 41.6744 370.188 41.6843 370.46 41.6843H371.652C371.925 41.6645 372.209 41.6546 372.504 41.6546C372.799 41.6349 373.072 41.6133 373.322 41.59C373.594 41.5702 373.787 41.5487 373.901 41.5254L373.932 41.6553C373.682 41.7633 373.444 41.9146 373.216 42.1092C373.012 42.282 372.898 42.6063 372.875 43.0821C372.855 43.601 372.832 44.1416 372.808 44.7037V59.947C372.828 60.5091 372.851 61.0497 372.875 61.5686C372.896 62.0443 373.01 62.3686 373.216 62.5415C373.444 62.7144 373.682 62.855 373.932 62.9633L373.901 63.0903Z" fill="white"/>
</g>
<g clip-path="url(#clip2_232_39)">
<path fill-rule="evenodd" clip-rule="evenodd" d="M48 86.5917L49.9195 88.7618V104.644L48.4969 106.723L57.2097 106.736L55.6393 104.824L55.4762 99.1039L63.8773 99.1496C66.4238 98.2997 69.0415 96.4878 69.1672 92.8247C69.1271 89.2749 66.9651 86.998 64.455 86.545L48 86.5917ZM55.1649 87.6075V97.811L61.6106 97.8577C63.0773 96.6721 64.1891 95.7641 64.1446 92.9176C64.1236 90.5965 63.6349 88.5725 61.4772 87.608L55.1649 87.6075ZM73.1994 86.476L75.119 88.6465V104.529L73.6963 106.608L82.4087 106.621L80.8383 104.709L80.6752 98.9886H80.7101L89.7113 106.685L97.1814 106.624L90.3636 100.713H84.672L82.666 98.9996L89.0763 99.0343C91.6227 98.1845 94.2399 96.3726 94.3662 92.7095C94.3265 89.1601 92.1645 86.8828 89.654 86.4303L73.1994 86.476ZM80.3639 87.4917V97.6952L86.8096 97.7419C88.2767 96.5563 89.3881 95.6484 89.3436 92.8014C89.3226 90.4808 88.8338 88.4563 86.6762 87.4917H80.3639ZM104.373 86.4532H111.886L121.665 104.644C122.088 106.049 123.354 105.876 124.199 106.492H114.731L116.153 106.046L116.064 104.691L113.619 100.766L105.307 100.813L103.529 104.599C103.469 105.03 103.01 105.357 103.351 105.892L104.018 106.538L99.9282 106.445L101.707 105.892L108.418 91.7171V90.747L105.582 86.9548L104.373 86.4532ZM105.832 99.5171L109.285 92.9643L112.879 99.4804L105.832 99.5171ZM155.174 86.4929H162.686L172.466 104.684C172.889 106.089 174.155 105.915 175 106.531H165.531L166.954 106.084L166.865 104.73L164.42 100.806L156.108 100.853L154.33 104.638C154.27 105.07 153.811 105.396 154.151 105.931L154.818 106.578L150.729 106.485L152.508 105.931L159.219 91.7568V90.7863L156.384 86.9945L155.174 86.4929ZM156.633 99.5573L160.086 93.0045L163.681 99.5196L156.633 99.5573ZM126.797 86.2639L140.18 86.3379C144.49 87.3497 147.232 89.9891 148.082 94.5934L148.046 98.1845C147.26 102.287 144.686 105.118 140.145 106.551L126.726 106.588L126.724 106.154C128.764 105.999 128.927 105.766 128.932 104.552V88.1886C128.909 87.2911 128.73 86.7323 126.761 86.6707L126.797 86.2639ZM134.404 87.6641L134.391 105.368C136.156 105.374 137.688 105.54 138.553 105.097C140.513 104.2 141.423 102.822 141.507 101.527L141.46 91.0729C141.46 89.4005 139.65 88.2199 138.604 87.9124C137.857 87.6348 136.365 87.6234 134.404 87.6641Z" fill="white" stroke="white" stroke-width="0.718154" stroke-miterlimit="2.613"/>
</g>
<path fill-rule="evenodd" clip-rule="evenodd" d="M217.012 105.676C212.291 105.676 208.262 101.395 208.262 96.7252C208.262 92.0727 212.207 87.7064 216.978 87.7064C220.114 87.7064 222.372 89.2236 224.21 91.6007H226.519C225.828 90.353 225.086 89.207 223.957 88.3133C222.018 86.7456 219.506 85.8187 217.012 85.8187C211.027 85.8187 206.156 90.7581 206.156 96.7087C206.156 102.676 211.095 107.565 217.045 107.565C219.473 107.565 221.85 106.672 223.755 105.171C224.952 104.21 225.795 102.963 226.604 101.681H224.295C222.473 104.058 220.148 105.676 217.012 105.676ZM240.949 94.2977C239.5 92.4266 237.527 91.2468 235.083 91.2468C230.7 91.2468 227.093 94.8044 227.093 99.1874C227.093 103.57 230.718 107.16 235.083 107.16C237.629 107.16 239.398 106.098 240.949 104.143V106.806H242.854V91.6172H240.949V94.2977ZM234.982 105.407C231.627 105.407 228.98 102.491 228.98 99.2039C228.98 95.9331 231.611 93.0004 234.982 93.0004C238.337 93.0004 240.949 95.9338 240.949 99.2039C240.949 102.491 238.319 105.407 234.982 105.407ZM245.164 106.806H247.204V86.2562H245.164V106.806ZM254.908 104.395L249.749 91.6172H247.726L253.913 106.806H255.969L262.14 91.6172H260.15L254.908 104.395ZM262.982 106.806H265.022V91.6172H262.982V106.806ZM262.982 89.6618H265.022V86.2562H262.982V89.6618ZM273.805 91.246C271.883 91.246 270.518 92.258 269.254 93.6065V91.6172H267.365V106.806H269.371V97.5505C269.354 95.1064 271.377 92.9996 273.838 92.9996C276.922 92.9996 278.474 95.6801 278.474 98.445V106.806H280.361V98.445C280.362 94.5003 278.053 91.246 273.805 91.246ZM299.293 86.2562L290.022 98.0399V86.2562H288.016V106.806H290.022V101.159L292.652 97.8885L299.344 106.806H301.89L293.932 96.2697L301.89 86.2562H299.293ZM302.631 106.806H304.621V86.2562H302.631V106.806ZM321.091 95.4437C319.708 92.8641 316.943 91.246 314.026 91.246C309.678 91.246 306.002 94.8707 306.002 99.2198C306.002 103.602 309.711 107.16 314.062 107.16C316.134 107.16 318.175 106.334 319.674 104.901C320.585 104.041 321.124 102.962 321.612 101.833H319.472C318.393 103.94 316.488 105.406 314.026 105.406C312.526 105.406 311.06 104.799 309.948 103.771C308.8 102.726 308.295 101.444 308.075 99.9276H322.085C322.086 98.3433 321.866 96.8261 321.091 95.4437ZM308.144 98.1747C308.752 95.3262 310.993 92.9996 314.062 92.9996C316.641 92.9996 319.405 94.5846 320.012 98.1747H308.144ZM323.569 106.806H325.574V91.6172H323.569V106.806ZM323.569 89.7296H325.574V86.2562H323.569V89.7296ZM334.392 91.246C332.435 91.246 331.07 92.258 329.789 93.6065V91.6172H327.867V106.806H329.89V97.5505C329.874 95.0898 331.947 92.9996 334.425 92.9996C337.494 92.9996 339.112 95.6801 339.112 98.445V106.806H341V98.445C341 94.5003 338.656 91.246 334.392 91.246Z" fill="white"/>
<defs>
<clipPath id="clip0_232_39">
<rect width="63.8088" height="26.6454" fill="white" transform="translate(166.736 39)"/>
</clipPath>
<clipPath id="clip1_232_39">
<rect width="109.387" height="25.2431" fill="white" transform="translate(264.545 39.7012)"/>
</clipPath>
<clipPath id="clip2_232_39">
<rect width="127" height="21" fill="white" transform="translate(48 86)"/>
</clipPath>
</defs>
</svg>
