<svg width="1440" height="122" viewBox="0 0 1440 122" fill="none" xmlns="http://www.w3.org/2000/svg">
<rect width="1440" height="122" fill="black"/>
<path fill-rule="evenodd" clip-rule="evenodd" d="M250.179 44.6557H266.482V47.2534C266.008 47.0944 265.512 47.0124 265.013 47.0106H255.642V59.1491H264.758C265.413 59.1491 265.996 59.0772 266.481 58.9548V61.5411C266.068 61.4443 265.499 61.3952 264.794 61.3952H255.642V73.9466H264.733C265.232 73.9466 265.826 73.874 266.481 73.7159V76.508H250.203C250.333 76.017 250.399 75.511 250.398 75.003V46.1969C250.398 45.5662 250.325 45.0444 250.179 44.6557ZM246.405 52.9222L241.695 52.8866C241.464 50.2398 239.947 47.6777 236.609 47.2057C229.459 46.5621 227.444 54.415 227.626 60.1572C227.809 65.6922 228.694 74.2015 236.075 74.2015C239.171 74.2015 242.144 71.0207 242.047 68.3383L246.405 68.3027C246.089 73.8377 239.741 77.0419 236.718 77.1516C226.389 77.5039 222.066 70.6206 221.848 60.7993C221.654 51.9035 225.296 44 235.504 44C244.244 44.1217 245.931 49.2929 246.405 52.9222ZM172.941 72.8901L176.061 70.2803C177.687 72.9635 179.023 74.1886 182.252 74.1886C185.529 74.1886 188.285 72.1982 188.285 68.6786C188.285 66.9423 187.58 65.522 186.185 64.4542C185.553 63.9559 183.951 63.0945 181.426 61.8928C177.651 60.0846 173.973 57.7289 173.973 52.9955C173.973 47.0227 179.047 44.3887 184.399 44.1936C187.568 44.0726 191.501 45.8217 193.091 47.7873L189.923 50.2269C189.358 49.1725 188.518 48.2908 187.492 47.6754C186.466 47.06 185.293 46.7338 184.097 46.7315C180.054 46.7315 176.85 51.4172 180.2 54.6464C181.049 55.4715 182.786 56.4909 185.432 57.7047C189.656 59.6838 193.261 62.0501 193.261 67.2825C193.261 69.0908 192.788 70.7779 191.853 72.3199C189.972 75.4273 186.828 76.9814 182.434 76.9814C177.384 76.9814 176.389 75.8281 172.941 72.8901ZM128.489 44.6557H144.778V47.2534C144.305 47.0944 143.809 47.0125 143.31 47.0106H133.94V59.1491H143.055C143.711 59.1491 144.294 59.0772 144.779 58.9548V61.5411C144.366 61.4443 143.796 61.3952 143.105 61.3952H133.94V73.9466H143.031C143.529 73.9466 144.124 73.874 144.779 73.7159V76.508H128.514C128.633 76.0151 128.694 75.5101 128.696 75.003V46.1969C128.696 45.5662 128.622 45.0444 128.489 44.6557ZM100 44.6557H105.924V44.9475C105.924 45.2145 106.008 45.5662 106.154 46.0154L114.505 71.1545L123.075 45.9057C123.209 45.4815 123.282 45.0686 123.282 44.6557H126.159C125.867 45.1654 125.649 45.6153 125.515 46.0154L115.731 75.2095C115.634 75.4886 115.549 75.9257 115.477 76.5087H110.621C110.547 76.0674 110.438 75.6329 110.293 75.2095L100.704 46.246C100.483 45.7119 100.252 45.1817 100.011 44.6557H100ZM162.914 61.262C166.799 60.4968 169.773 57.5232 169.773 53.2746C169.773 47.7019 165.111 44.6549 159.892 44.6549H150.351C150.484 45.1412 150.557 45.6509 150.557 46.1848V74.9774C150.557 75.5968 150.484 76.1186 150.351 76.5073H156.032C155.893 76.0093 155.823 75.4944 155.825 74.9774V61.7476L157.646 61.9419L167.163 76.5073H172.88L162.914 61.262ZM161.931 58.8345C160.9 59.562 159.661 59.9258 158.241 59.9258H155.813V46.9757H157.986C159.844 46.9757 161.288 47.4363 162.32 48.3582C163.728 49.6339 164.444 51.3574 164.444 53.518C164.444 55.8488 163.606 57.6214 161.931 58.8352M220.901 75.1853L210.293 45.7121C210.175 45.3713 210.105 45.0157 210.086 44.6557H205.497C205.497 45.0322 205.436 45.4323 205.29 45.8331L195.01 75.1853C194.875 75.6089 194.657 76.0467 194.366 76.508H197.328C197.316 76.0225 197.377 75.5733 197.51 75.1853L200.556 66.5294H212.27L215.281 75.186C215.439 75.658 215.511 76.0951 215.511 76.508H221.654C221.301 76.0104 221.047 75.5612 220.901 75.1853ZM201.358 64.1865L206.31 49.8027L211.397 64.1865H201.358Z" fill="white"/>
<g clip-path="url(#clip0_232_46)">
<path d="M458.814 78.8682L445.332 42.0323L445.323 42.0079H445.057L442.28 49.5775L437.226 63.3583L437.214 63.3474C435.462 61.8135 432.991 60.8546 429.878 60.4976L428.929 60.4003L429.871 60.2805C435.004 59.3652 438.454 56.1482 438.454 52.2723C438.454 46.9574 433.416 43.2476 426.201 43.2476H411.187V43.5167H415.549V70.98L404.954 42.0322L404.945 42.0079H404.679L401.902 49.5775L391.194 78.7734L391.128 78.781C390.945 78.8034 390.764 78.8212 390.585 78.8346C390.316 78.8556 390.048 78.8681 389.779 78.8681H378.959L399.527 43.5166L399.679 43.2509H374.525V54.1867H374.792C374.839 48.8601 377.965 43.5166 384.872 43.5166H393.204L372.482 79.133H400.399V68.6557H400.132C400.096 73.2985 397.444 77.7082 391.676 78.7039L391.493 78.7349L395.885 66.7547H408.189L412.623 78.8682H408.249V79.1331H425.415V78.8682H421.023V60.5956H426.091C431.248 60.5956 434.206 62.8821 434.206 66.8669V70.1082C434.206 70.4653 434.231 70.9875 434.258 71.4242V71.4401L431.534 78.8665H427.975V79.1314H435.341V78.8665H431.821L434.302 72.104C434.307 72.1694 434.309 72.2088 434.309 72.2088L434.378 72.8181L434.444 73.2212C434.857 75.7149 435.819 77.548 437.299 78.6695L437.512 78.8229C438.637 79.5991 440.035 79.9922 441.67 79.9922C443.834 79.9922 445.278 79.4566 446.47 78.196L446.313 78.0501C445.215 79.0559 444.294 79.4633 443.139 79.4633C441.172 79.4633 440.142 77.0954 440.142 74.7602V70.2188C440.153 69.092 439.975 67.9712 439.616 66.9021L439.567 66.7613V66.7563H448.567L453 78.8699H448.627V79.1347H463.482V78.8699L458.814 78.8682ZM395.983 66.4898L402.044 49.9648L408.092 66.4898H395.983ZM421.025 60.3299V43.5166H424.894C430.061 43.5166 432.79 46.5651 432.79 52.3294C432.79 58.4599 431.224 60.3299 426.091 60.3299H421.025ZM439.462 66.4898L439.436 66.4244C439.036 65.4578 438.454 64.5759 437.721 63.826L437.467 63.5745L437.44 63.5494L442.419 49.9648L448.466 66.4898H439.462Z" fill="white"/>
</g>
<g clip-path="url(#clip1_232_46)">
<path d="M710.794 54.2934L710.502 54.3855C709.369 52.042 707.749 50.1765 705.644 48.7889C703.571 47.4013 700.964 46.7075 697.822 46.7075C696.073 46.7075 694.405 47.0621 692.818 47.7713C691.231 48.4497 689.838 49.421 688.64 50.6852C687.474 51.9186 686.534 53.4142 685.822 55.1718C685.109 56.9294 684.753 58.872 684.753 60.9997C684.753 63.1273 685.109 65.0699 685.822 66.8275C686.534 68.5851 687.474 70.096 688.64 71.3603C689.838 72.5937 691.231 73.5496 692.818 74.228C694.405 74.9063 696.073 75.2455 697.822 75.2455C700.931 75.2455 703.458 74.783 705.401 73.8579C707.377 72.9021 709.045 71.4528 710.405 69.5102L710.697 69.6024L710.6 72.5626C709.855 73.3026 708.997 73.9656 708.025 74.5514C707.053 75.1065 706.001 75.5844 704.867 75.9853C703.766 76.3553 702.616 76.6328 701.418 76.8178C700.219 77.0339 699.021 77.1419 697.822 77.1419C695.328 77.1419 692.948 76.7564 690.681 75.9855C688.413 75.2146 686.421 74.1354 684.705 72.7478C682.988 71.3294 681.628 69.6335 680.624 67.66C679.62 65.6558 679.117 63.4356 679.117 60.9996C679.117 58.5636 679.62 56.3589 680.624 54.3855C681.628 52.3812 682.988 50.6698 684.705 49.2514C686.421 47.833 688.413 46.7537 690.681 46.0137C692.948 45.2428 695.328 44.8573 697.822 44.8573C699.021 44.8573 700.219 44.9498 701.418 45.1349C702.616 45.3199 703.766 45.6128 704.867 46.0137C706.001 46.3837 707.053 46.8617 708.025 47.4476C708.997 48.0026 709.855 48.6501 710.6 49.3902L710.794 54.2934ZM603.734 63.1277C603.378 63.2817 603.038 63.4822 602.713 63.7293C602.389 63.9758 602.227 64.315 602.227 64.7469V70.4359C600.673 72.5636 598.681 74.2133 596.251 75.385C593.822 76.5568 591.134 77.1427 588.186 77.1427C585.693 77.1427 583.312 76.7572 581.045 75.9863C578.777 75.2154 576.785 74.1362 575.069 72.7486C573.352 71.3302 571.992 69.6343 570.988 67.6608C569.984 65.6566 569.482 63.4364 569.482 61.0004C569.482 58.5644 569.984 56.3597 570.988 54.3863C571.992 52.3819 573.352 50.6706 575.069 49.2522C576.785 47.8337 578.777 46.7545 581.045 46.0145C583.312 45.2436 585.693 44.8581 588.186 44.8581C589.385 44.8581 590.583 44.9506 591.782 45.1356C592.98 45.3206 594.13 45.6136 595.231 46.0145C596.365 46.3845 597.417 46.8624 598.389 47.4483C599.361 48.0034 600.219 48.6509 600.964 49.3909L601.159 54.2937L600.867 54.3859C599.734 52.0424 598.114 50.1768 596.009 48.7892C593.936 47.4016 591.329 46.7078 588.187 46.7078C586.438 46.7078 584.77 47.0624 583.183 47.7717C581.596 48.4501 580.203 49.4214 579.004 50.6856C577.838 51.919 576.899 53.4145 576.187 55.1721C575.474 56.9297 575.118 58.8724 575.118 61C575.118 63.0968 575.458 65.024 576.138 66.7816C576.851 68.5392 577.79 70.0501 578.956 71.3144C580.154 72.5478 581.547 73.5191 583.134 74.2283C584.721 74.9067 586.405 75.2459 588.187 75.2459C591.555 75.2459 594.438 74.6292 596.835 73.3958V64.7465C596.835 64.315 596.657 63.9758 596.301 63.7289C595.977 63.4824 595.653 63.2819 595.329 63.1273L595.373 62.8963C595.535 62.9245 595.827 62.9553 596.248 62.9885C596.669 63.0167 597.106 63.0475 597.56 63.0807H601.738C602.127 63.0525 602.499 63.0218 602.856 62.9885C603.212 62.9603 603.487 62.9296 603.681 62.8963L603.734 63.1277ZM638.924 45.8291C638.6 45.9831 638.276 46.1836 637.952 46.4306C637.628 46.6771 637.45 47.1397 637.418 47.8182C637.388 48.5583 637.356 49.4987 637.321 50.6397C637.321 51.7498 637.306 53.014 637.277 54.4323C637.277 55.8508 637.262 57.3926 637.232 59.0577V64.2381C637.203 66.2423 636.943 67.9537 636.455 69.3721C635.969 70.7905 635.321 71.9776 634.511 72.9335C633.734 73.8895 632.859 74.6449 631.888 75.2C630.948 75.755 630.009 76.1713 629.07 76.4488C628.163 76.7573 627.305 76.9423 626.495 77.0038C625.685 77.0963 625.053 77.1426 624.6 77.1426C622.754 77.1426 620.972 76.9113 619.256 76.4488C617.539 76.0173 616.033 75.3081 614.737 74.3211C613.442 73.3344 612.405 72.0547 611.628 70.4822C610.851 68.9096 610.462 66.9978 610.462 64.7468V59.5203V54.7099C610.462 53.2298 610.447 51.9038 610.418 50.7321C610.418 49.5295 610.403 48.5582 610.373 47.8182C610.344 47.1398 610.166 46.6773 609.839 46.4306C609.515 46.1841 609.191 45.9836 608.867 45.829L608.912 45.5981C609.074 45.6263 609.333 45.657 609.69 45.6902C610.078 45.7184 610.467 45.7492 610.856 45.7824C611.277 45.7824 611.682 45.7965 612.07 45.8247H613.819C614.208 45.7965 614.613 45.7824 615.034 45.7824C615.455 45.7542 615.844 45.7235 616.2 45.6902C616.588 45.662 616.864 45.6313 617.025 45.5981L617.07 45.829C616.714 45.983 616.374 46.1836 616.05 46.4306C615.758 46.6771 615.596 47.1396 615.563 47.8182C615.534 48.5582 615.502 49.5295 615.467 50.7321V64.7468C615.467 68.1078 616.293 70.59 617.944 72.1935C619.596 73.7969 622.042 74.5986 625.281 74.5986C626.22 74.5986 627.289 74.4906 628.487 74.2746C629.686 74.0281 630.803 73.5347 631.839 72.7945C632.908 72.0544 633.799 71.0061 634.512 69.6493C635.256 68.2925 635.629 66.4887 635.629 64.2377C635.629 61.8017 635.614 59.7204 635.585 57.9936C635.585 56.236 635.57 54.7405 635.54 53.5071C635.54 52.2428 635.525 51.1636 635.496 50.2693C635.466 49.3751 635.434 48.558 635.399 47.8179C635.369 47.1395 635.191 46.677 634.865 46.4304C634.541 46.1839 634.217 45.9833 633.893 45.8288L633.937 45.5978C634.294 45.6593 634.698 45.721 635.152 45.7831C635.605 45.8113 636.026 45.8254 636.415 45.8254C636.771 45.8254 637.176 45.8113 637.63 45.7831C638.116 45.7217 638.537 45.6599 638.893 45.5978L638.924 45.8291ZM674.178 54.2934L673.886 54.3855C672.753 52.042 671.133 50.1765 669.028 48.7889C666.955 47.4013 664.348 46.7075 661.206 46.7075C659.457 46.7075 657.789 47.0621 656.202 47.7713C654.615 48.4497 653.222 49.421 652.023 50.6852C650.857 51.9186 649.918 53.4142 649.206 55.1718C648.493 56.9294 648.137 58.8721 648.137 60.9997C648.137 63.1273 648.493 65.0699 649.206 66.8275C649.918 68.5851 650.858 70.096 652.024 71.3603C653.222 72.5937 654.615 73.5496 656.202 74.228C657.789 74.9063 659.457 75.2455 661.206 75.2455C664.315 75.2455 666.842 74.783 668.785 73.8579C670.761 72.9021 672.429 71.4528 673.789 69.5102L674.081 69.6024L673.984 72.5626C673.239 73.3026 672.38 73.9656 671.409 74.5514C670.437 75.1064 669.384 75.5844 668.251 75.9853C667.15 76.3553 666 76.6328 664.801 76.8178C663.603 77.0338 662.405 77.1419 661.206 77.1419C658.712 77.1419 656.332 76.7564 654.064 75.9855C651.797 75.2146 649.805 74.1354 648.088 72.7478C646.372 71.3294 645.011 69.6335 644.007 67.66C643.003 65.6557 642.501 63.4356 642.501 60.9996C642.501 58.5636 643.003 56.3589 644.007 54.3855C645.011 52.3811 646.372 50.6698 648.088 49.2514C649.805 47.8329 651.797 46.7537 654.064 46.0137C656.332 45.2428 658.712 44.8573 661.206 44.8573C662.405 44.8573 663.603 44.9498 664.801 45.1348C666 45.3198 667.15 45.6128 668.251 46.0137C669.384 46.3837 670.437 46.8616 671.409 47.4475C672.38 48.0026 673.239 48.6501 673.984 49.3901L674.178 54.2934ZM725.437 76.356C725.275 76.3278 725 76.297 724.612 76.2638C724.256 76.2638 723.867 76.2497 723.446 76.2215C723.024 76.2215 722.619 76.2074 722.231 76.1792H719.316C718.928 76.2074 718.539 76.2381 718.15 76.2714C717.794 76.2996 717.519 76.3303 717.325 76.3635L717.28 76.1782C717.604 76.0242 717.928 75.8237 718.252 75.5766C718.576 75.3302 718.754 74.8676 718.786 74.1891C718.816 73.449 718.83 72.6782 718.83 71.8764C718.86 71.0747 718.875 70.165 718.875 69.1475V65.6785V61.007V56.3355V52.8203C718.875 51.8027 718.86 50.9085 718.83 50.1376C718.83 49.3358 718.816 48.565 718.786 47.8249C718.756 47.1465 718.578 46.684 718.252 46.4374C717.928 46.1598 717.604 45.9441 717.28 45.7901L717.325 45.6048C717.519 45.6663 717.794 45.7125 718.15 45.7436C718.539 45.7436 718.928 45.7577 719.316 45.7859C719.737 45.8141 720.142 45.8282 720.531 45.8282H722.231C722.62 45.8 723.025 45.7859 723.446 45.7859C723.867 45.7577 724.256 45.7269 724.612 45.6937C725 45.6655 725.275 45.6347 725.437 45.6015L725.482 45.7868C725.126 45.9408 724.786 46.1566 724.461 46.4341C724.17 46.6806 724.008 47.1431 723.975 47.8217C723.946 48.5617 723.913 49.3326 723.878 50.1343V71.8732C723.908 72.6749 723.94 73.4458 723.975 74.1858C724.005 74.8642 724.167 75.3267 724.461 75.5734C724.786 75.8199 725.126 76.0204 725.482 76.1749L725.437 76.356Z" fill="white"/>
</g>
<g clip-path="url(#clip2_232_46)">
<path fill-rule="evenodd" clip-rule="evenodd" d="M831.482 45.9018L834.414 49.2085V73.4106L832.241 76.5774L845.55 76.5978L843.151 73.6839L842.902 64.9679L855.735 65.0375C859.625 63.7425 863.624 60.9815 863.816 55.3996C863.755 49.9903 860.452 46.5209 856.618 45.8306L831.482 45.9018ZM842.427 47.4495V62.9977L852.273 63.0689C854.513 61.2623 856.212 59.8787 856.144 55.5411C856.111 52.0043 855.365 48.9201 852.069 47.4503L842.427 47.4495ZM869.975 45.7254L872.907 49.0329V73.2351L870.734 76.4033L884.043 76.4222L881.644 73.5083L881.395 64.7923H881.448L895.198 76.5206L906.609 76.4275L896.195 67.4193H887.5L884.436 64.8089L894.228 64.8619C898.118 63.5669 902.116 60.8059 902.309 55.224C902.248 49.8155 898.946 46.3453 895.111 45.6558L869.975 45.7254ZM880.919 47.2732V62.8214L890.766 62.8925C893.007 61.0859 894.704 59.7024 894.636 55.364C894.604 51.828 893.858 48.743 890.562 47.2732H880.919ZM917.595 45.6906H929.071L944.009 73.4106C944.656 75.551 946.589 75.2869 947.88 76.2254H933.416L935.59 75.5457L935.454 73.4818L931.719 67.5011L919.021 67.5722L916.305 73.3418C916.214 73.998 915.512 74.496 916.033 75.3111L917.052 76.2958L910.805 76.155L913.522 75.3111L923.774 53.7118V52.2337L919.442 46.455L917.595 45.6906ZM919.824 65.5976L925.098 55.6123L930.589 65.5416L919.824 65.5976ZM995.197 45.7511H1006.67L1021.61 73.4712C1022.26 75.6116 1024.19 75.3475 1025.48 76.286H1011.02L1013.19 75.6048L1013.05 73.5408L1009.32 67.5616L996.622 67.6328L993.906 73.4008C993.815 74.0585 993.114 74.5565 993.634 75.3717L994.653 76.3563L988.407 76.2156L991.123 75.3717L1001.38 53.7724V52.2934L997.044 46.5156L995.197 45.7511ZM997.425 65.6589L1002.7 55.6736L1008.19 65.6013L997.425 65.6589ZM951.849 45.4022L972.292 45.515C978.875 47.0567 983.064 51.0787 984.363 58.0948L984.308 63.5669C983.108 69.8186 979.175 74.1319 972.238 76.3155L951.74 76.373L951.737 75.7107C954.853 75.4754 955.102 75.1196 955.11 73.2699V48.3351C955.075 46.9674 954.802 46.1159 951.794 46.0221L951.849 45.4022ZM963.469 47.5358L963.45 74.5134C966.146 74.5225 968.485 74.7753 969.806 74.1009C972.801 72.7333 974.191 70.633 974.319 68.6598L974.247 52.7302C974.248 50.1818 971.482 48.3827 969.885 47.9142C968.743 47.4912 966.465 47.4738 963.469 47.5358Z" fill="white" stroke="white" stroke-width="1.02419" stroke-miterlimit="2.613"/>
</g>
<path fill-rule="evenodd" clip-rule="evenodd" d="M1148.13 74.4522C1140.89 74.4522 1134.71 67.8867 1134.71 60.7255C1134.71 53.5907 1140.76 46.8948 1148.08 46.8948C1152.89 46.8948 1156.35 49.2215 1159.17 52.8667H1162.71C1161.65 50.9535 1160.51 49.196 1158.78 47.8255C1155.81 45.4214 1151.96 44 1148.13 44C1138.95 44 1131.48 51.5746 1131.48 60.7C1131.48 69.8508 1139.06 77.3481 1148.18 77.3481C1151.9 77.3481 1155.55 75.9786 1158.47 73.6774C1160.31 72.204 1161.6 70.2907 1162.84 68.3255H1159.3C1156.51 71.9708 1152.94 74.4522 1148.13 74.4522ZM1184.84 57.0028C1182.62 54.1334 1179.59 52.324 1175.84 52.324C1169.12 52.324 1163.59 57.7798 1163.59 64.5012C1163.59 71.2214 1169.15 76.728 1175.84 76.728C1179.75 76.728 1182.46 75.0988 1184.84 72.1001V76.1842H1187.76V52.8922H1184.84V57.0028ZM1175.69 74.0388C1170.54 74.0388 1166.48 69.5668 1166.48 64.5266C1166.48 59.5107 1170.52 55.0132 1175.69 55.0132C1180.83 55.0132 1184.84 59.5118 1184.84 64.5266C1184.84 69.5668 1180.81 74.0388 1175.69 74.0388ZM1191.3 76.1842H1194.43V44.6709H1191.3V76.1842ZM1206.24 72.487L1198.33 52.8922H1195.23L1204.72 76.1842H1207.87L1217.34 52.8922H1214.28L1206.24 72.487ZM1218.63 76.1842H1221.76V52.8922H1218.63V76.1842ZM1218.63 49.8935H1221.76V44.6709H1218.63V49.8935ZM1235.22 52.3229C1232.28 52.3229 1230.18 53.8748 1228.24 55.9428V52.8922H1225.35V76.1842H1228.42V61.991C1228.4 58.2429 1231.5 55.0121 1235.28 55.0121C1240 55.0121 1242.38 59.1228 1242.38 63.3627V76.1853H1245.28V63.3627C1245.28 57.3134 1241.74 52.3229 1235.22 52.3229ZM1274.31 44.6709L1260.09 62.7415V44.6709H1257.02V76.1842H1260.09V67.5242L1264.13 62.5094L1274.39 76.1842H1278.29L1266.09 60.0269L1278.29 44.6709H1274.31ZM1279.43 76.1842H1282.48V44.6709H1279.43V76.1842ZM1307.74 58.7602C1305.62 54.8043 1301.38 52.3229 1296.9 52.3229C1290.24 52.3229 1284.6 57.8815 1284.6 64.5509C1284.6 71.2711 1290.29 76.7269 1296.96 76.7269C1300.14 76.7269 1303.27 75.4602 1305.57 73.2629C1306.96 71.9443 1307.79 70.2896 1308.54 68.5576H1305.26C1303.6 71.7895 1300.68 74.0377 1296.9 74.0377C1294.6 74.0377 1292.36 73.107 1290.65 71.5298C1288.89 69.9282 1288.12 67.9619 1287.78 65.6363H1309.26C1309.26 63.2068 1308.93 60.8802 1307.74 58.7602ZM1287.88 62.9482C1288.82 58.5801 1292.25 55.0121 1296.96 55.0121C1300.91 55.0121 1305.15 57.4427 1306.08 62.9482H1287.88ZM1311.54 76.1842H1314.61V52.8922H1311.54V76.1842ZM1311.54 49.9974H1314.61V44.6709H1311.54V49.9974ZM1328.14 52.3229C1325.14 52.3229 1323.04 53.8748 1321.08 55.9428V52.8922H1318.13V76.1842H1321.23V61.991C1321.21 58.2175 1324.39 55.0121 1328.19 55.0121C1332.89 55.0121 1335.37 59.1228 1335.37 63.3627V76.1853H1338.27V63.3627C1338.27 57.3134 1334.68 52.3229 1328.14 52.3229Z" fill="white"/>
<defs>
<clipPath id="clip0_232_46">
<rect width="91" height="38" fill="white" transform="translate(372.482 42)"/>
</clipPath>
<clipPath id="clip1_232_46">
<rect width="156" height="36" fill="white" transform="translate(569.482 43)"/>
</clipPath>
<clipPath id="clip2_232_46">
<rect width="194" height="32" fill="white" transform="translate(831.482 45)"/>
</clipPath>
</defs>
</svg>
